<svg width="570" height="560" viewBox="0 0 570 560" fill="none" xmlns="http://www.w3.org/2000/svg">
<path d="M70.429 460.764V403.908C70.429 402.466 70.12 401.47 69.502 400.921C68.9527 400.303 67.957 399.994 66.515 399.994C66.515 396.08 68.7123 394.123 73.107 394.123C76.7463 394.123 78.566 396.492 78.566 401.23V428.113H88.145V404.732L87.733 395.05C90.0677 394.707 92.368 394.535 94.634 394.535C95.7327 394.535 96.282 395.119 96.282 396.286V453.245C96.282 454.687 96.5567 455.717 97.106 456.335C97.724 456.884 98.754 457.159 100.196 457.159C100.196 461.073 97.9987 463.03 93.604 463.03C89.9647 463.03 88.145 460.661 88.145 455.923V434.911H78.566V452.318L78.978 462C76.6433 462.343 74.343 462.515 72.077 462.515C70.9783 462.515 70.429 461.931 70.429 460.764ZM114.401 443.151C112.135 444.662 111.002 447.202 111.002 450.773C111.002 454.275 112.066 456.026 114.195 456.026C116.392 456.026 118.109 454.79 119.345 452.318V439.855L114.401 443.151ZM115.534 410.5C123.225 410.5 127.07 413.899 127.07 420.697V453.451C127.07 454.893 127.31 455.923 127.791 456.541C128.34 457.159 129.336 457.468 130.778 457.468C130.847 459.253 130.366 460.627 129.336 461.588C128.375 462.549 126.967 463.03 125.113 463.03C122.229 463.03 120.478 461.966 119.86 459.837C117.731 461.966 115.225 463.03 112.341 463.03C109.457 463.03 107.157 461.931 105.44 459.734C103.723 457.537 102.865 454.584 102.865 450.876C102.865 445.245 105.234 440.988 109.972 438.104L119.345 432.542V421.418C119.345 418.534 117.972 417.092 115.225 417.092C112.547 417.092 111.208 418.706 111.208 421.933V425.332L111.517 430.173C110.624 430.379 109.697 430.482 108.736 430.482C107.843 430.482 106.985 430.345 106.161 430.07C104.513 429.658 103.689 428.868 103.689 427.701V419.255C103.689 416.508 104.753 414.38 106.882 412.869C109.079 411.29 111.963 410.5 115.534 410.5ZM154.252 451.597C156.998 452.833 158.372 454.618 158.372 456.953C158.372 457.708 158.063 458.326 157.445 458.807C154.698 461.622 150.544 463.03 144.982 463.03C137.978 463.03 134.476 459.185 134.476 451.494V420.594C134.476 413.865 138.458 410.5 146.424 410.5C149.926 410.5 152.672 411.29 154.664 412.869C156.655 414.448 157.651 416.577 157.651 419.255V427.701C157.651 428.868 156.827 429.658 155.179 430.07C154.355 430.345 153.462 430.482 152.501 430.482C151.608 430.482 150.715 430.379 149.823 430.173C150.029 428.662 150.132 427.049 150.132 425.332V421.933C150.132 420.216 149.823 418.98 149.205 418.225C148.587 417.47 147.522 417.092 146.012 417.092C143.471 417.092 142.201 418.156 142.201 420.285V450.258C142.201 452.387 142.544 453.932 143.231 454.893C143.917 455.854 145.05 456.335 146.63 456.335C148.278 456.335 149.857 455.82 151.368 454.79C152.878 453.76 153.84 452.696 154.252 451.597ZM179.412 419.976C179.412 417.367 179.172 414.551 178.691 411.53C180.751 411.255 182.983 411.118 185.386 411.118C186.553 411.118 187.137 411.633 187.137 412.663V431.409C187.137 434.568 186.107 437.074 184.047 438.928C186.107 440.645 187.137 443.151 187.137 446.447V453.451C187.137 454.893 187.377 455.923 187.858 456.541C188.407 457.159 189.403 457.468 190.845 457.468C190.914 459.185 190.399 460.558 189.3 461.588C188.27 462.549 186.794 463.03 184.871 463.03C182.948 463.03 181.541 462.481 180.648 461.382C179.824 460.283 179.412 458.464 179.412 455.923V446.344C179.412 445.108 179 444.112 178.176 443.357C177.421 442.602 176.459 442.224 175.292 442.224H171.481V453.554C171.481 456.85 171.721 459.597 172.202 461.794C170.142 462.206 167.91 462.412 165.507 462.412C164.34 462.412 163.756 461.897 163.756 460.867V398.14C163.756 396.08 163.447 393.986 162.829 391.857C164.889 390.758 167.086 390.209 169.421 390.209C170.794 390.209 171.481 390.724 171.481 391.754V436.044H175.498C176.528 436.044 177.421 435.666 178.176 434.911C179 434.087 179.412 433.091 179.412 431.924V419.976ZM209.739 395.05C212.211 395.05 214.065 394.878 215.301 394.535C215.85 396.458 216.125 398.346 216.125 400.2C216.125 401.299 215.644 401.848 214.683 401.848H206.649V452.318L207.061 462C204.726 462.343 202.426 462.515 200.16 462.515C199.061 462.515 198.512 461.931 198.512 460.764V401.848H195.422C192.95 401.848 191.096 402.02 189.86 402.363C189.311 400.44 189.036 398.552 189.036 396.698C189.036 395.599 189.517 395.05 190.478 395.05H209.739ZM220.687 398.14C220.687 396.08 220.378 393.986 219.76 391.857C221.82 390.758 224.018 390.209 226.352 390.209C227.726 390.209 228.412 390.724 228.412 391.754V413.178C230.541 411.393 232.876 410.5 235.416 410.5C237.957 410.5 240.017 411.358 241.596 413.075C243.244 414.792 244.068 417.229 244.068 420.388V453.451C244.068 454.893 244.309 455.923 244.789 456.541C245.339 457.159 246.334 457.468 247.776 457.468C247.845 459.253 247.364 460.627 246.334 461.588C245.373 462.549 243.931 463.03 242.008 463.03C240.086 463.03 238.644 462.446 237.682 461.279C236.79 460.112 236.343 458.189 236.343 455.511V421.006C236.343 418.74 235.176 417.607 232.841 417.607C230.919 417.607 229.442 418.671 228.412 420.8V453.554C228.412 456.85 228.653 459.597 229.133 461.794C227.073 462.206 224.842 462.412 222.438 462.412C221.271 462.412 220.687 461.897 220.687 460.867V398.14ZM267.42 421.521C267.42 420.148 267.008 419.083 266.184 418.328C265.36 417.504 264.33 417.092 263.094 417.092C260.553 417.092 259.283 418.156 259.283 420.285V435.014L264.227 431.306C266.355 429.727 267.42 426.465 267.42 421.521ZM251.558 452.833V420.594C251.558 413.865 255.506 410.5 263.403 410.5C271.368 410.5 275.351 414.277 275.351 421.83C275.351 424.851 274.801 427.632 273.703 430.173C272.604 432.714 271.093 434.636 269.171 435.941L259.283 442.739V452.112C259.283 454.996 260.622 456.438 263.3 456.438C266.046 456.438 267.42 454.824 267.42 451.597V449.228L267.111 444.387C268.003 444.181 268.896 444.078 269.789 444.078C270.75 444.078 271.643 444.215 272.467 444.49C274.115 444.902 274.939 445.692 274.939 446.859V454.275C274.939 457.022 273.84 459.185 271.643 460.764C269.514 462.275 266.664 463.03 263.094 463.03C255.403 463.03 251.558 459.631 251.558 452.833ZM306.885 452.936C306.885 455.82 305.649 458.223 303.177 460.146C300.773 462.069 297.615 463.03 293.701 463.03C289.787 463.03 286.697 462.137 284.431 460.352C282.165 458.567 281.032 455.957 281.032 452.524V404.938C281.032 401.505 282.199 398.827 284.534 396.904C286.868 394.981 289.993 394.02 293.907 394.02C297.889 394.02 301.048 394.913 303.383 396.698C305.717 398.415 306.885 400.681 306.885 403.496V416.268C306.885 417.504 305.992 418.362 304.207 418.843C303.245 419.118 302.284 419.255 301.323 419.255C300.361 419.255 299.4 419.152 298.439 418.946C298.645 417.298 298.748 415.547 298.748 413.693V404.938C298.748 403.633 298.301 402.638 297.409 401.951C296.516 401.196 295.349 400.818 293.907 400.818C292.465 400.818 291.297 401.196 290.405 401.951C289.581 402.638 289.169 403.633 289.169 404.938V452.112C289.169 453.348 289.581 454.344 290.405 455.099C291.297 455.854 292.465 456.232 293.907 456.232C295.349 456.232 296.516 455.889 297.409 455.202C298.301 454.447 298.748 453.417 298.748 452.112V449.846L298.439 444.593C299.4 444.387 300.361 444.284 301.323 444.284C302.284 444.284 303.245 444.421 304.207 444.696C305.992 445.177 306.885 446.035 306.885 447.271V452.936ZM313.327 398.14C313.327 396.08 313.018 393.986 312.4 391.857C314.46 390.758 316.657 390.209 318.992 390.209C320.365 390.209 321.052 390.724 321.052 391.754V413.178C323.181 411.393 325.515 410.5 328.056 410.5C330.597 410.5 332.657 411.358 334.236 413.075C335.884 414.792 336.708 417.229 336.708 420.388V453.451C336.708 454.893 336.948 455.923 337.429 456.541C337.978 457.159 338.974 457.468 340.416 457.468C340.485 459.253 340.004 460.627 338.974 461.588C338.013 462.549 336.571 463.03 334.648 463.03C332.725 463.03 331.283 462.446 330.322 461.279C329.429 460.112 328.983 458.189 328.983 455.511V421.006C328.983 418.74 327.816 417.607 325.481 417.607C323.558 417.607 322.082 418.671 321.052 420.8V453.554C321.052 456.85 321.292 459.597 321.773 461.794C319.713 462.206 317.481 462.412 315.078 462.412C313.911 462.412 313.327 461.897 313.327 460.867V398.14ZM354.6 443.151C352.334 444.662 351.201 447.202 351.201 450.773C351.201 454.275 352.266 456.026 354.394 456.026C356.592 456.026 358.308 454.79 359.544 452.318V439.855L354.6 443.151ZM355.733 410.5C363.424 410.5 367.269 413.899 367.269 420.697V453.451C367.269 454.893 367.51 455.923 367.99 456.541C368.54 457.159 369.535 457.468 370.977 457.468C371.046 459.253 370.565 460.627 369.535 461.588C368.574 462.549 367.166 463.03 365.312 463.03C362.428 463.03 360.677 461.966 360.059 459.837C357.931 461.966 355.424 463.03 352.54 463.03C349.656 463.03 347.356 461.931 345.639 459.734C343.923 457.537 343.064 454.584 343.064 450.876C343.064 445.245 345.433 440.988 350.171 438.104L359.544 432.542V421.418C359.544 418.534 358.171 417.092 355.424 417.092C352.746 417.092 351.407 418.706 351.407 421.933V425.332L351.716 430.173C350.824 430.379 349.897 430.482 348.935 430.482C348.043 430.482 347.184 430.345 346.36 430.07C344.712 429.658 343.888 428.868 343.888 427.701V419.255C343.888 416.508 344.953 414.38 347.081 412.869C349.279 411.29 352.163 410.5 355.733 410.5ZM379.722 402.157C376.769 402.157 375.293 400.2 375.293 396.286C375.293 392.372 376.769 390.415 379.722 390.415C382.675 390.415 384.151 392.372 384.151 396.286C384.151 400.2 382.675 402.157 379.722 402.157ZM373.336 411.53H383.636V453.451C383.636 454.893 383.876 455.923 384.357 456.541C384.906 457.159 385.902 457.468 387.344 457.468C387.413 459.253 386.932 460.627 385.902 461.588C384.941 462.549 383.499 463.03 381.576 463.03C379.653 463.03 378.211 462.446 377.25 461.279C376.357 460.112 375.911 458.189 375.911 455.511V417.71L372.718 418.225C372.237 416.44 371.997 414.895 371.997 413.59C371.997 412.217 372.443 411.53 373.336 411.53ZM400.434 453.554C400.434 456.919 400.674 459.734 401.155 462C399.095 462.275 396.863 462.412 394.46 462.412C393.292 462.412 392.709 461.897 392.709 460.867V420.079C392.709 418.637 392.434 417.607 391.885 416.989C391.404 416.371 390.443 416.062 389.001 416.062C388.932 414.277 389.378 412.903 390.34 411.942C391.37 410.981 392.983 410.5 395.181 410.5C397.378 410.5 398.957 411.564 399.919 413.693C402.185 411.564 404.622 410.5 407.232 410.5C409.91 410.5 412.038 411.358 413.618 413.075C415.266 414.792 416.09 417.229 416.09 420.388V453.451C416.09 454.893 416.33 455.923 416.811 456.541C417.36 457.159 418.356 457.468 419.798 457.468C419.866 459.253 419.386 460.627 418.356 461.588C417.394 462.549 415.952 463.03 414.03 463.03C412.107 463.03 410.665 462.446 409.704 461.279C408.811 460.112 408.365 458.189 408.365 455.511V421.006C408.365 418.74 407.197 417.607 404.863 417.607C402.94 417.607 401.464 418.671 400.434 420.8V453.554Z" fill="white"/>
<path d="M446.747 433.263H441.597C440.704 433.263 440.258 432.782 440.258 431.821C440.258 430.379 440.498 428.525 440.979 426.259C442.077 426.602 443.76 426.774 446.026 426.774H447.365C448.532 426.774 449.459 426.396 450.146 425.641C450.832 424.886 451.176 423.89 451.176 422.654V404.835C451.176 402.02 449.802 400.612 447.056 400.612C444.378 400.612 443.039 401.985 443.039 404.732V409.573L443.348 414.826C442.455 415.032 441.528 415.135 440.567 415.135C439.674 415.135 438.781 414.998 437.889 414.723C436.172 414.242 435.314 413.384 435.314 412.148V403.702C435.314 400.681 436.275 398.312 438.198 396.595C440.189 394.878 442.97 394.02 446.541 394.02C454.643 394.02 458.695 397.041 458.695 403.084V422.86C458.695 425.95 457.768 428.319 455.914 429.967C457.768 431.615 458.695 433.984 458.695 437.074V452.112C458.695 455.545 457.63 458.223 455.502 460.146C453.373 462.069 450.523 463.03 446.953 463.03C443.451 463.03 440.635 462.137 438.507 460.352C436.378 458.498 435.314 456.163 435.314 453.348V446.962C435.314 445.726 436.138 444.868 437.786 444.387C438.747 444.112 439.674 443.975 440.567 443.975C441.459 443.975 442.352 444.078 443.245 444.284C443.107 445.932 443.039 447.683 443.039 449.537V452.524C443.039 453.76 443.416 454.756 444.172 455.511C444.927 456.266 445.854 456.644 446.953 456.644C448.12 456.644 449.081 456.266 449.837 455.511C450.592 454.756 450.97 453.76 450.97 452.524V437.383C450.97 436.078 450.592 435.083 449.837 434.396C449.081 433.641 448.051 433.263 446.747 433.263ZM469.006 463.03C466.053 463.03 464.577 461.073 464.577 457.159C464.577 453.245 466.053 451.288 469.006 451.288C471.959 451.288 473.435 453.245 473.435 457.159C473.435 461.073 471.959 463.03 469.006 463.03ZM479.495 452.524V404.938C479.495 401.505 480.559 398.827 482.688 396.904C484.817 394.981 487.701 394.02 491.34 394.02C494.979 394.02 497.795 394.913 499.786 396.698C501.846 398.483 502.876 401.093 502.876 404.526V452.112C502.876 455.545 501.777 458.223 499.58 460.146C497.451 462.069 494.567 463.03 490.928 463.03C487.289 463.03 484.473 462.137 482.482 460.352C480.491 458.567 479.495 455.957 479.495 452.524ZM487.22 404.526V452.524C487.22 453.691 487.598 454.687 488.353 455.511C489.108 456.266 490.035 456.644 491.134 456.644C492.301 456.644 493.263 456.266 494.018 455.511C494.773 454.687 495.151 453.691 495.151 452.524V404.526C495.151 403.359 494.773 402.397 494.018 401.642C493.263 400.818 492.301 400.406 491.134 400.406C490.035 400.406 489.108 400.818 488.353 401.642C487.598 402.397 487.22 403.359 487.22 404.526Z" fill="#99EEDF"/>
<path d="M90 239.362L124.842 219.452L158.688 239.362V280.176L124.842 301.081L90 280.176V239.362Z" stroke="#008970" stroke-width="3.9819"/>
<path d="M99.9546 149.429L123.749 135.833L146.863 149.429V177.303L123.749 191.579L99.9546 177.303V149.429Z" stroke="#008970" stroke-width="2.71935"/>
<path d="M386.652 168.38L401.8 159.724L416.516 168.38V186.126L401.8 195.215L386.652 186.126V168.38Z" stroke="#008970" stroke-width="1.73126"/>
<mask id="path-5-inside-1_2_66" fill="white">
<path fill-rule="evenodd" clip-rule="evenodd" d="M227.834 80.4976C226.068 81.4422 223.572 82.9035 222.288 83.7443C221.003 84.5862 218.638 86.0031 217.032 86.894C211.389 90.0244 209.424 91.1606 207.544 92.3824C206.5 93.06 204.713 94.0844 203.573 94.6571C198.058 97.4315 193.524 100.482 192.773 101.926C192.173 103.078 192.162 145.782 192.761 147.216C193.294 148.493 194.583 149.527 197.171 150.756C198.354 151.317 201.27 152.98 203.652 154.451C206.034 155.922 209.164 157.714 210.609 158.433C212.055 159.152 214.324 160.453 215.652 161.326C216.98 162.199 219.804 163.845 221.928 164.985C224.052 166.124 226.672 167.622 227.749 168.314C232.094 171.105 232.424 171.12 236.176 168.699C237.689 167.723 240.063 166.349 241.45 165.648C244.2 164.256 249.733 161.016 250.507 160.343C250.774 160.111 252.351 159.232 254.011 158.388C255.671 157.544 258.77 155.782 260.898 154.471C263.025 153.16 266.058 151.44 267.636 150.647C270.887 149.017 272.341 147.642 272.384 146.16C272.651 137.028 272.238 102.194 271.855 101.545C271.412 100.797 263.842 96.0204 261.016 94.7073C260.269 94.3594 258.074 93.0828 256.142 91.869C254.208 90.6552 251.317 88.9703 249.718 88.1227C248.12 87.2762 245.432 85.7065 243.746 84.6353C233.672 78.2331 232.591 77.9525 227.834 80.4976ZM310.866 125.3C303.105 129.789 303.19 129.686 303.055 134.654C302.836 142.662 303.291 143.352 310.697 146.231C311.954 146.719 313.213 147.12 313.497 147.12C314.498 147.12 321.527 143.294 322.645 142.14L323.739 141.011V135.695V130.379L322.487 129.188C321.798 128.533 319.79 127.175 318.025 126.172C314.172 123.98 313.325 123.877 310.866 125.3ZM188.991 152.968C188.502 153.069 186.421 154.165 184.367 155.403C182.313 156.641 179.064 158.5 177.146 159.534C175.23 160.568 172.896 161.934 171.959 162.57C171.024 163.205 168.305 164.798 165.918 166.108C163.531 167.419 160.327 169.29 158.797 170.264C157.267 171.24 154.792 172.693 153.296 173.495C149.368 175.603 149.738 173.005 149.738 198.498C149.738 224.102 149.417 221.69 153.087 223.697C154.496 224.467 156.716 225.788 158.021 226.632C160.697 228.364 164.281 230.439 166.671 231.64C167.554 232.084 169.656 233.332 171.342 234.413C173.028 235.495 175.33 236.843 176.459 237.41C177.587 237.977 180.543 239.656 183.027 241.142C190.302 245.492 189.372 245.48 196.26 241.311C199.014 239.643 201.99 237.919 202.872 237.478C203.755 237.037 205.792 235.855 207.398 234.85C209.003 233.846 212.025 232.112 214.113 230.996C216.2 229.88 219.704 227.859 221.899 226.508C224.092 225.155 226.552 223.69 227.362 223.252C230.064 221.789 229.856 223.86 229.827 198.799C229.797 172.953 230.222 175.732 225.937 173.354C224.732 172.686 222.827 171.525 221.704 170.775C219.676 169.424 216.562 167.629 212.07 165.225C210.785 164.538 208.641 163.267 207.306 162.402C205.97 161.537 203.962 160.368 202.844 159.804C201.725 159.242 198.662 157.489 196.037 155.91C191.053 152.914 190.453 152.663 188.991 152.968ZM358.627 153.087C357.393 153.475 354.728 154.966 352.059 156.763C351.176 157.356 349.402 158.373 348.117 159.02C346.833 159.666 343.828 161.398 341.44 162.869C339.051 164.339 336.03 166.079 334.728 166.734C333.424 167.389 331.436 168.545 330.31 169.303C329.186 170.059 326.749 171.548 324.895 172.611C323.042 173.673 321.202 174.886 320.808 175.305L320.09 176.07L320.012 198.251C319.92 224.399 319.485 221.552 323.971 224.203C325.69 225.219 328.494 226.941 330.201 228.029C331.908 229.119 334.026 230.329 334.909 230.719C335.792 231.11 337.224 231.883 338.091 232.438C341.415 234.564 345.577 237.005 347.68 238.06C348.884 238.666 350.45 239.558 351.16 240.045C358.615 245.162 360.039 245.408 364.785 242.4C367.558 240.642 369.364 239.595 374.247 236.909C375.933 235.982 378.409 234.502 379.749 233.622C381.088 232.741 383.06 231.616 384.128 231.122C385.196 230.629 387.057 229.607 388.26 228.853C393.886 225.327 396.681 223.633 397.834 223.051C400.255 221.829 400.228 221.971 400.23 210.054C400.231 201.219 400.306 199.293 400.71 197.856C401.154 196.272 401.154 196.039 400.71 194.664C400.313 193.434 400.23 191.776 400.226 184.967C400.222 175.58 400.256 175.739 397.888 174.368C393.605 171.892 390.609 169.913 389.283 168.687C388.223 167.707 387.347 167.2 386.084 166.836C383.938 166.22 382.274 165.386 379.149 163.364C377.818 162.502 374.958 160.848 372.794 159.688C370.629 158.529 367.767 156.868 366.433 155.998C361.918 153.055 360.458 152.511 358.627 153.087ZM433.379 192.809C431.657 193.852 429.083 195.309 427.655 196.046C422.986 198.458 422.913 198.654 423.055 208.443C423.163 216.047 423.138 215.967 425.916 217.717C426.855 218.309 428.848 219.571 430.345 220.52C436.797 224.614 438.479 224.569 445.337 220.124C446.782 219.187 448.712 217.953 449.627 217.38C452.398 215.645 452.343 215.846 452.343 207.42C452.343 198.06 452.899 199.083 445.629 195.051C444.183 194.249 441.953 192.99 440.673 192.253C437.569 190.465 437.197 190.494 433.379 192.809ZM316.494 227.129C316.122 227.279 313.955 228.502 311.678 229.847C309.4 231.193 306.682 232.723 305.639 233.247C304.595 233.772 302.821 234.823 301.695 235.583C300.57 236.341 298.561 237.509 297.231 238.178C294.521 239.54 289.023 242.754 286.82 244.262C286.025 244.807 284.405 245.7 283.223 246.247C280.344 247.577 278.324 249.095 277.931 250.226C277.471 251.542 277.485 294.54 277.945 295.548C278.453 296.665 284.667 300.709 289.874 303.312C290.918 303.833 292.865 304.969 294.202 305.837C295.539 306.705 297.653 307.928 298.9 308.555C301.261 309.742 307.187 313.252 309.397 314.773C311.672 316.339 316.34 318.494 317.456 318.494C318.915 318.494 325.531 314.968 330.599 311.49C331.242 311.048 332.857 310.141 334.187 309.473C335.517 308.806 338.408 307.164 340.609 305.825C342.812 304.485 345.545 302.921 346.682 302.35C347.818 301.778 349.941 300.546 351.399 299.611C352.856 298.676 354.66 297.549 355.406 297.106C357.746 295.716 357.627 297.118 357.539 272.183L357.46 250.111L356.395 249.19C355.808 248.682 353.546 247.302 351.368 246.122C349.189 244.942 346.198 243.194 344.721 242.238C343.242 241.283 341.103 240.034 339.966 239.464C338.83 238.892 335.798 237.149 333.229 235.587C330.66 234.027 327.506 232.225 326.222 231.585C324.937 230.944 322.932 229.801 321.766 229.042C318.564 226.962 317.698 226.647 316.494 227.129ZM217.435 246.807C216.893 246.997 214.424 248.368 211.951 249.851C209.478 251.334 206.982 252.789 206.404 253.086C205.827 253.382 205.026 253.976 204.625 254.406L203.895 255.188V263.026C203.895 272.344 203.652 271.69 208.001 274.058C209.596 274.926 212.412 276.553 214.259 277.673C218.641 280.331 218.536 280.342 224.658 276.682C227.208 275.158 229.994 273.537 230.849 273.079C233.284 271.779 233.276 271.814 233.175 262.691L233.09 254.791L232.36 254.212C231.958 253.894 230.448 252.971 229.002 252.16C227.557 251.348 225.012 249.831 223.347 248.787C219.951 246.659 218.881 246.299 217.435 246.807Z"/>
</mask>
<path fill-rule="evenodd" clip-rule="evenodd" d="M227.834 80.4976C226.068 81.4422 223.572 82.9035 222.288 83.7443C221.003 84.5862 218.638 86.0031 217.032 86.894C211.389 90.0244 209.424 91.1606 207.544 92.3824C206.5 93.06 204.713 94.0844 203.573 94.6571C198.058 97.4315 193.524 100.482 192.773 101.926C192.173 103.078 192.162 145.782 192.761 147.216C193.294 148.493 194.583 149.527 197.171 150.756C198.354 151.317 201.27 152.98 203.652 154.451C206.034 155.922 209.164 157.714 210.609 158.433C212.055 159.152 214.324 160.453 215.652 161.326C216.98 162.199 219.804 163.845 221.928 164.985C224.052 166.124 226.672 167.622 227.749 168.314C232.094 171.105 232.424 171.12 236.176 168.699C237.689 167.723 240.063 166.349 241.45 165.648C244.2 164.256 249.733 161.016 250.507 160.343C250.774 160.111 252.351 159.232 254.011 158.388C255.671 157.544 258.77 155.782 260.898 154.471C263.025 153.16 266.058 151.44 267.636 150.647C270.887 149.017 272.341 147.642 272.384 146.16C272.651 137.028 272.238 102.194 271.855 101.545C271.412 100.797 263.842 96.0204 261.016 94.7073C260.269 94.3594 258.074 93.0828 256.142 91.869C254.208 90.6552 251.317 88.9703 249.718 88.1227C248.12 87.2762 245.432 85.7065 243.746 84.6353C233.672 78.2331 232.591 77.9525 227.834 80.4976ZM310.866 125.3C303.105 129.789 303.19 129.686 303.055 134.654C302.836 142.662 303.291 143.352 310.697 146.231C311.954 146.719 313.213 147.12 313.497 147.12C314.498 147.12 321.527 143.294 322.645 142.14L323.739 141.011V135.695V130.379L322.487 129.188C321.798 128.533 319.79 127.175 318.025 126.172C314.172 123.98 313.325 123.877 310.866 125.3ZM188.991 152.968C188.502 153.069 186.421 154.165 184.367 155.403C182.313 156.641 179.064 158.5 177.146 159.534C175.23 160.568 172.896 161.934 171.959 162.57C171.024 163.205 168.305 164.798 165.918 166.108C163.531 167.419 160.327 169.29 158.797 170.264C157.267 171.24 154.792 172.693 153.296 173.495C149.368 175.603 149.738 173.005 149.738 198.498C149.738 224.102 149.417 221.69 153.087 223.697C154.496 224.467 156.716 225.788 158.021 226.632C160.697 228.364 164.281 230.439 166.671 231.64C167.554 232.084 169.656 233.332 171.342 234.413C173.028 235.495 175.33 236.843 176.459 237.41C177.587 237.977 180.543 239.656 183.027 241.142C190.302 245.492 189.372 245.48 196.26 241.311C199.014 239.643 201.99 237.919 202.872 237.478C203.755 237.037 205.792 235.855 207.398 234.85C209.003 233.846 212.025 232.112 214.113 230.996C216.2 229.88 219.704 227.859 221.899 226.508C224.092 225.155 226.552 223.69 227.362 223.252C230.064 221.789 229.856 223.86 229.827 198.799C229.797 172.953 230.222 175.732 225.937 173.354C224.732 172.686 222.827 171.525 221.704 170.775C219.676 169.424 216.562 167.629 212.07 165.225C210.785 164.538 208.641 163.267 207.306 162.402C205.97 161.537 203.962 160.368 202.844 159.804C201.725 159.242 198.662 157.489 196.037 155.91C191.053 152.914 190.453 152.663 188.991 152.968ZM358.627 153.087C357.393 153.475 354.728 154.966 352.059 156.763C351.176 157.356 349.402 158.373 348.117 159.02C346.833 159.666 343.828 161.398 341.44 162.869C339.051 164.339 336.03 166.079 334.728 166.734C333.424 167.389 331.436 168.545 330.31 169.303C329.186 170.059 326.749 171.548 324.895 172.611C323.042 173.673 321.202 174.886 320.808 175.305L320.09 176.07L320.012 198.251C319.92 224.399 319.485 221.552 323.971 224.203C325.69 225.219 328.494 226.941 330.201 228.029C331.908 229.119 334.026 230.329 334.909 230.719C335.792 231.11 337.224 231.883 338.091 232.438C341.415 234.564 345.577 237.005 347.68 238.06C348.884 238.666 350.45 239.558 351.16 240.045C358.615 245.162 360.039 245.408 364.785 242.4C367.558 240.642 369.364 239.595 374.247 236.909C375.933 235.982 378.409 234.502 379.749 233.622C381.088 232.741 383.06 231.616 384.128 231.122C385.196 230.629 387.057 229.607 388.26 228.853C393.886 225.327 396.681 223.633 397.834 223.051C400.255 221.829 400.228 221.971 400.23 210.054C400.231 201.219 400.306 199.293 400.71 197.856C401.154 196.272 401.154 196.039 400.71 194.664C400.313 193.434 400.23 191.776 400.226 184.967C400.222 175.58 400.256 175.739 397.888 174.368C393.605 171.892 390.609 169.913 389.283 168.687C388.223 167.707 387.347 167.2 386.084 166.836C383.938 166.22 382.274 165.386 379.149 163.364C377.818 162.502 374.958 160.848 372.794 159.688C370.629 158.529 367.767 156.868 366.433 155.998C361.918 153.055 360.458 152.511 358.627 153.087ZM433.379 192.809C431.657 193.852 429.083 195.309 427.655 196.046C422.986 198.458 422.913 198.654 423.055 208.443C423.163 216.047 423.138 215.967 425.916 217.717C426.855 218.309 428.848 219.571 430.345 220.52C436.797 224.614 438.479 224.569 445.337 220.124C446.782 219.187 448.712 217.953 449.627 217.38C452.398 215.645 452.343 215.846 452.343 207.42C452.343 198.06 452.899 199.083 445.629 195.051C444.183 194.249 441.953 192.99 440.673 192.253C437.569 190.465 437.197 190.494 433.379 192.809ZM316.494 227.129C316.122 227.279 313.955 228.502 311.678 229.847C309.4 231.193 306.682 232.723 305.639 233.247C304.595 233.772 302.821 234.823 301.695 235.583C300.57 236.341 298.561 237.509 297.231 238.178C294.521 239.54 289.023 242.754 286.82 244.262C286.025 244.807 284.405 245.7 283.223 246.247C280.344 247.577 278.324 249.095 277.931 250.226C277.471 251.542 277.485 294.54 277.945 295.548C278.453 296.665 284.667 300.709 289.874 303.312C290.918 303.833 292.865 304.969 294.202 305.837C295.539 306.705 297.653 307.928 298.9 308.555C301.261 309.742 307.187 313.252 309.397 314.773C311.672 316.339 316.34 318.494 317.456 318.494C318.915 318.494 325.531 314.968 330.599 311.49C331.242 311.048 332.857 310.141 334.187 309.473C335.517 308.806 338.408 307.164 340.609 305.825C342.812 304.485 345.545 302.921 346.682 302.35C347.818 301.778 349.941 300.546 351.399 299.611C352.856 298.676 354.66 297.549 355.406 297.106C357.746 295.716 357.627 297.118 357.539 272.183L357.46 250.111L356.395 249.19C355.808 248.682 353.546 247.302 351.368 246.122C349.189 244.942 346.198 243.194 344.721 242.238C343.242 241.283 341.103 240.034 339.966 239.464C338.83 238.892 335.798 237.149 333.229 235.587C330.66 234.027 327.506 232.225 326.222 231.585C324.937 230.944 322.932 229.801 321.766 229.042C318.564 226.962 317.698 226.647 316.494 227.129ZM217.435 246.807C216.893 246.997 214.424 248.368 211.951 249.851C209.478 251.334 206.982 252.789 206.404 253.086C205.827 253.382 205.026 253.976 204.625 254.406L203.895 255.188V263.026C203.895 272.344 203.652 271.69 208.001 274.058C209.596 274.926 212.412 276.553 214.259 277.673C218.641 280.331 218.536 280.342 224.658 276.682C227.208 275.158 229.994 273.537 230.849 273.079C233.284 271.779 233.276 271.814 233.175 262.691L233.09 254.791L232.36 254.212C231.958 253.894 230.448 252.971 229.002 252.16C227.557 251.348 225.012 249.831 223.347 248.787C219.951 246.659 218.881 246.299 217.435 246.807Z" fill="#008970" stroke="#008970" stroke-width="2.28159" mask="url(#path-5-inside-1_2_66)"/>
<path d="M303.032 129.149L314.141 122.801L324.932 129.149V142.162L314.141 148.828L303.032 142.162V129.149Z" fill="#99EEDF"/>
<path d="M299.05 116.096L320.258 103.977L340.86 116.096V140.94L320.258 153.665L299.05 140.94V116.096Z" stroke="#008970" stroke-width="2.42377"/>
<path d="M177.955 138.779L177.956 138.778C178.251 138.537 178.553 138.068 178.81 137.398C179.061 136.742 179.247 135.952 179.348 135.137C179.449 134.322 179.463 133.501 179.381 132.785C179.297 132.056 179.121 131.492 178.886 131.144L177.955 138.779ZM177.955 138.779C176.481 139.986 175.291 140.726 174.306 141.072C173.341 141.41 172.604 141.363 171.969 141.035C170.01 140.022 168.882 139.256 168.2 138.402C167.54 137.574 167.254 136.607 167.139 135.065C166.997 133.156 167.087 132.154 167.572 131.373M177.955 138.779L167.572 131.373M257.917 161.334L257.916 161.334C255.886 162.691 252.903 164.412 248.208 166.942L247.935 166.435L248.208 166.942C246.959 167.614 244.732 168.956 243.268 169.916C243.267 169.916 243.267 169.916 243.267 169.916L242.952 169.435L257.917 161.334ZM257.917 161.334C259.024 160.593 260.942 159.519 262.158 158.958C263.418 158.377 265.094 157.46 265.898 156.906C266.645 156.392 268.724 155.131 270.516 154.107C272.536 152.954 273.701 152.415 274.641 152.305C275.519 152.203 276.265 152.469 277.479 153.214L277.78 152.724L277.479 153.214C278.36 153.755 280.538 155.092 282.32 156.186C284.107 157.284 286.506 158.656 287.66 159.239L287.66 159.239C288.769 159.799 291.069 161.149 292.761 162.234C294.471 163.331 296.874 164.733 298.112 165.354L298.112 165.354C300.501 166.551 305.281 169.34 308.51 171.426L308.822 170.942C309.955 171.674 311.545 172.608 312.355 173.018L312.095 173.531C312.095 173.531 312.095 173.531 312.095 173.531C312.872 173.924 313.801 174.578 314.142 174.943C314.142 174.943 314.142 174.944 314.142 174.944L314.724 175.568L314.801 197.766C314.807 199.749 314.815 201.567 314.822 203.234C314.862 212.547 314.882 217.152 314.594 219.578C314.426 221.004 314.163 221.523 313.864 221.814C313.706 221.968 313.505 222.09 313.207 222.235C313.111 222.281 312.989 222.337 312.853 222.399C312.623 222.505 312.352 222.628 312.094 222.759L312.355 223.272L312.094 222.759C310.946 223.343 309.4 224.237 308.643 224.756L308.642 224.756C306.119 226.493 300.573 229.775 298.255 230.908C296.929 231.555 294.721 232.826 293.333 233.738L293.333 233.739M257.917 161.334L293.333 233.739M293.333 233.739C291.978 234.631 289.68 235.994 288.238 236.762C285.862 238.028 282.617 239.948 277.546 243.087C276.837 243.526 276.261 243.792 275.672 243.896M293.333 233.739L275.672 243.896M380.478 306.15C379.274 305.338 376.962 303.978 375.329 303.119C372.502 301.631 369.719 300.006 367.556 298.612C366.474 297.915 365.552 297.28 364.861 296.752C364.514 296.488 364.231 296.256 364.016 296.059C363.831 295.89 363.716 295.765 363.654 295.682C363.651 295.669 363.648 295.652 363.644 295.632C363.628 295.54 363.611 295.406 363.593 295.226C363.557 294.867 363.522 294.361 363.49 293.724C363.424 292.452 363.366 290.683 363.317 288.579C363.22 284.373 363.157 278.841 363.136 273.29C363.114 267.74 363.133 262.175 363.198 257.903C363.231 255.766 363.274 253.956 363.33 252.635C363.358 251.973 363.389 251.439 363.422 251.05C363.438 250.855 363.455 250.703 363.471 250.592C363.486 250.493 363.496 250.457 363.495 250.457C363.495 250.457 363.495 250.457 363.495 250.457C363.704 249.965 364.203 249.378 365.178 248.651C366.151 247.925 367.539 247.102 369.437 246.121L369.173 245.61L369.438 246.121C371.069 245.278 373.341 243.962 374.497 243.188C375.608 242.445 378.436 240.803 380.78 239.545L380.508 239.038L380.78 239.544C383.136 238.278 386.328 236.434 387.884 235.437L387.573 234.953L387.884 235.437C389.405 234.462 391.836 233.087 393.271 232.388L393.271 232.388C394.725 231.679 396.361 230.78 396.896 230.381L396.897 230.381C397.353 230.039 398.782 229.139 400.074 228.385L399.785 227.889L380.156 306.627M380.478 306.15L380.156 306.627M380.478 306.15C380.478 306.15 380.477 306.15 380.477 306.15L380.156 306.627M380.478 306.15C381.639 306.933 383.742 308.153 385.136 308.853L384.878 309.367C383.464 308.658 381.34 307.424 380.156 306.627M123.244 238.59L123.243 238.59C121.759 239.391 121.214 239.757 120.914 240.542C120.752 240.966 120.653 241.543 120.6 242.424C120.547 243.303 120.541 244.435 120.541 245.953C120.541 247.371 120.548 248.434 120.598 249.263C120.648 250.094 120.74 250.647 120.888 251.058C121.164 251.821 121.66 252.196 122.979 252.982L122.979 252.982C123.998 253.59 125.964 254.795 127.35 255.663C128.942 256.659 129.855 257.09 130.641 257.15C131.391 257.207 132.121 256.929 133.372 256.163L133.372 256.163C134.338 255.572 135.989 254.584 137.044 253.966L137.044 253.965C138.986 252.829 139.744 252.339 140.139 251.427C140.341 250.957 140.46 250.34 140.522 249.398C140.584 248.457 140.587 247.247 140.587 245.606C140.587 244.145 140.579 243.043 140.531 242.185C140.483 241.322 140.397 240.748 140.258 240.329C140.008 239.574 139.578 239.25 138.408 238.618C138.408 238.618 138.408 238.618 138.407 238.618L123.244 238.59ZM123.244 238.59C124.463 237.932 126.512 236.704 127.808 235.855L123.244 238.59ZM167.572 131.373C168.069 130.571 169.042 129.9 171.015 128.871M167.572 131.373L171.015 128.871M171.015 128.871C172.046 128.334 173.62 128.311 175.191 128.76C176.755 129.207 178.164 130.079 178.886 131.144L171.015 128.871ZM275.672 243.896C275.092 243.999 274.45 243.952 273.6 243.68C271.857 243.121 269.388 241.666 265.073 238.896L264.762 239.38L275.672 243.896ZM437.741 130.195L437.569 129.646L437.741 130.195C440.297 129.393 443.227 131.583 443.227 134.371C443.227 137.221 441.092 138.771 438.821 138.889C437.687 138.948 436.56 138.641 435.7 137.98C434.852 137.329 434.231 136.31 434.126 134.863C434.032 133.567 434.264 132.646 434.801 131.944C435.347 131.229 436.272 130.655 437.741 130.195ZM134.058 175.706L134.057 175.706C132.594 176.799 131.676 177.23 130.803 177.212C129.918 177.195 128.939 176.715 127.36 175.556C124.068 173.139 124.426 168.141 128.064 166.164C130.209 164.998 132.27 165.082 133.763 165.981C135.255 166.879 136.279 168.651 136.227 171.074C136.195 172.579 136.109 173.341 135.836 173.919C135.571 174.48 135.097 174.931 134.058 175.706ZM107.162 213.258L107.162 213.258C105.308 214.364 104.154 214.79 103.019 214.673C101.858 214.554 100.597 213.857 98.5645 212.341C97.6201 211.635 97.1666 211.152 96.9065 210.468C96.63 209.74 96.5478 208.728 96.5478 206.888C96.5478 204.992 96.7852 203.865 97.489 202.929C98.2167 201.962 99.4987 201.122 101.821 199.972C102.727 199.523 103.257 199.391 103.887 199.51C104.58 199.641 105.451 200.084 106.992 201.027C107.952 201.616 108.656 202.058 109.184 202.454C109.708 202.847 110.024 203.171 110.231 203.507C110.648 204.186 110.705 205.042 110.705 207.036C110.705 209.123 110.621 210.111 110.196 210.857C109.772 211.604 108.962 212.185 107.162 213.258ZM471.87 181.279L471.637 181.805L471.87 181.279C469.158 180.08 469.068 176.515 471.758 175.143C472.861 174.581 473.955 174.705 474.776 175.266C475.602 175.831 476.198 176.874 476.197 178.236C476.196 179.558 475.641 180.553 474.856 181.098C474.076 181.641 473.007 181.783 471.87 181.279ZM409.342 229.391L409.03 229.874C410.433 230.779 412.546 231.96 413.745 232.506C414.897 233.031 416.388 233.84 417.045 234.291C418.924 235.581 424.541 238.872 426.765 239.988L427.023 239.474L426.765 239.988C427.793 240.504 429.694 241.616 430.976 242.452C433.428 244.051 434.659 244.77 437.939 246.52C439.632 247.423 440.765 248.077 441.54 248.614C442.292 249.134 442.669 249.519 442.891 249.874C442.895 249.887 442.902 249.916 442.912 249.967C442.932 250.068 442.954 250.213 442.976 250.404C443.019 250.785 443.061 251.314 443.1 251.976C443.177 253.298 443.243 255.12 443.296 257.279C443.402 261.595 443.457 267.238 443.461 272.88C443.465 278.522 443.417 284.158 443.317 288.461C443.267 290.613 443.204 292.427 443.129 293.739C443.091 294.396 443.05 294.92 443.007 295.294C442.985 295.482 442.964 295.623 442.945 295.72C442.939 295.75 442.933 295.773 442.929 295.789C442.885 295.842 442.788 295.943 442.614 296.096C442.412 296.274 442.142 296.492 441.816 296.74C441.167 297.236 440.318 297.837 439.393 298.459C437.538 299.705 435.413 301.013 434.014 301.717C431.459 303.001 427.87 305.07 425.092 306.858L409.342 229.391ZM475.406 244.595L475.406 244.595C475.205 244.81 474.746 245.156 474.102 245.574C473.475 245.981 472.717 246.428 471.958 246.843C471.198 247.258 470.445 247.636 469.828 247.909C469.519 248.045 469.251 248.152 469.039 248.223C468.932 248.259 468.846 248.284 468.779 248.299C468.707 248.316 468.677 248.317 468.678 248.317C468.237 248.317 467.567 248.122 466.755 247.742C465.96 247.37 465.09 246.849 464.269 246.264C463.449 245.679 462.693 245.041 462.121 244.44C461.528 243.817 461.203 243.307 461.127 242.98C460.482 240.197 460.546 238.092 461.287 236.441C462.023 234.8 463.475 233.506 465.828 232.441L465.591 231.917L465.828 232.441C468.724 231.131 472.401 231.93 475.116 234.592L475.518 234.181L475.116 234.592C475.524 234.992 475.882 235.681 476.144 236.585C476.403 237.477 476.553 238.524 476.583 239.582C476.613 240.64 476.523 241.69 476.315 242.587C476.105 243.497 475.787 244.189 475.406 244.595ZM443.434 296.074L442.953 295.758C442.953 295.758 442.953 295.758 442.953 295.759L443.434 296.074Z" fill="#99EEDF" stroke="#99EEDF" stroke-width="1.15036"/>
<path d="M165.656 130.822L172.726 126.783L179.593 130.822V139.104L172.726 143.345L165.656 139.104V130.822Z" fill="#99EEDF"/>
<path d="M123.846 166.66L130.916 162.62L137.783 166.66V174.941L130.916 179.182L123.846 174.941V166.66Z" fill="#99EEDF"/>
<path d="M95.9727 203.074L104.052 198.457L111.9 203.074V212.538L104.052 217.385L95.9727 212.538V203.074Z" fill="#99EEDF"/>
<path d="M117.873 239.228L129.992 232.303L141.765 239.228V253.425L129.992 260.696L117.873 253.425V239.228Z" fill="#99EEDF"/>
<path d="M460.317 234.092L470.416 228.321L480.226 234.092V245.922L470.416 251.982L460.317 245.922V234.092Z" fill="#99EEDF"/>
</svg>
